<?xml version="1.0" encoding="UTF-8"?>
<!DOCTYPE svg PUBLIC "-//W3C//DTD SVG 1.1//EN" "http://www.w3.org/Graphics/SVG/1.1/DTD/svg11.dtd">
<!-- Creator: CorelDRAW X6 -->
<svg xmlns="http://www.w3.org/2000/svg" xml:space="preserve" width="512px" height="512px" version="1.1" style="shape-rendering:geometricPrecision; text-rendering:geometricPrecision; image-rendering:optimizeQuality; fill-rule:evenodd; clip-rule:evenodd"
viewBox="0 0 512 512"
 xmlns:xlink="http://www.w3.org/1999/xlink">
 <defs>
  <style type="text/css">
   <![CDATA[
    .str0 {stroke:#CCCCCC;stroke-width:0.216}
    .fil19 {fill:#DEF1FF}
    .fil20 {fill:#0C4278;fill-rule:nonzero}
    .fil17 {fill:url(#id0)}
    .fil5 {fill:url(#id1)}
    .fil10 {fill:url(#id2)}
    .fil2 {fill:url(#id3)}
    .fil12 {fill:url(#id4)}
    .fil0 {fill:url(#id5)}
    .fil9 {fill:url(#id6)}
    .fil7 {fill:url(#id7)}
    .fil18 {fill:url(#id8)}
    .fil16 {fill:url(#id9)}
    .fil15 {fill:url(#id10)}
    .fil4 {fill:url(#id11)}
    .fil11 {fill:url(#id12)}
    .fil3 {fill:url(#id13)}
    .fil13 {fill:url(#id14)}
    .fil1 {fill:url(#id15)}
    .fil8 {fill:url(#id16)}
    .fil6 {fill:url(#id17)}
    .fil14 {fill:url(#id18)}
   ]]>
  </style>
  <linearGradient id="id0" gradientUnits="userSpaceOnUse" x1="40.0785" y1="292.742" x2="435.486" y2="292.742">
   <stop offset="0" style="stop-color:#CCCCCC"/>
   <stop offset="1" style="stop-color:gray"/>
  </linearGradient>
  <radialGradient id="id1" gradientUnits="objectBoundingBox" cx="55.9999%" cy="50%" r="50%" fx="55.9999%" fy="50%">
   <stop offset="0" style="stop-color:#FCEF70"/>
   <stop offset="1" style="stop-color:#FFC847"/>
  </radialGradient>
  <radialGradient id="id2" gradientUnits="objectBoundingBox" xlink:href="#id1" cx="52%" cy="51%" r="50%" fx="52%" fy="51%">
  </radialGradient>
  <radialGradient id="id3" gradientUnits="objectBoundingBox" xlink:href="#id1" cx="50%" cy="54.9999%" r="50%" fx="50%" fy="54.9999%">
  </radialGradient>
  <radialGradient id="id4" gradientUnits="objectBoundingBox" xlink:href="#id1" cx="49.9999%" cy="50%" r="50.0001%" fx="49.9999%" fy="50%">
  </radialGradient>
  <radialGradient id="id5" gradientUnits="objectBoundingBox" xlink:href="#id1" cx="50%" cy="44.0003%" r="50%" fx="50%" fy="44.0003%">
  </radialGradient>
  <radialGradient id="id6" gradientUnits="objectBoundingBox" xlink:href="#id1" cx="51%" cy="48%" r="50%" fx="51%" fy="48%">
  </radialGradient>
  <radialGradient id="id7" gradientUnits="objectBoundingBox" xlink:href="#id1" cx="54.9997%" cy="50.0001%" r="50.0001%" fx="54.9997%" fy="50.0001%">
  </radialGradient>
  <radialGradient id="id8" gradientUnits="objectBoundingBox" cx="37%" cy="52%" r="50%" fx="37%" fy="52%">
   <stop offset="0" style="stop-color:#FEFEFE"/>
   <stop offset="1" style="stop-color:#CCCCCC"/>
  </radialGradient>
  <radialGradient id="id9" gradientUnits="objectBoundingBox" cx="50%" cy="50%" r="50%" fx="50%" fy="50%">
   <stop offset="0" style="stop-color:yellow"/>
   <stop offset="1" style="stop-color:#FF6600"/>
  </radialGradient>
  <radialGradient id="id10" gradientUnits="objectBoundingBox" xlink:href="#id1" cx="50%" cy="49.9999%" r="50.0001%" fx="50%" fy="49.9999%">
  </radialGradient>
  <radialGradient id="id11" gradientUnits="objectBoundingBox" xlink:href="#id1" cx="44.0001%" cy="50%" r="50%" fx="44.0001%" fy="50%">
  </radialGradient>
  <radialGradient id="id12" gradientUnits="objectBoundingBox" xlink:href="#id1" cx="48%" cy="49%" r="50%" fx="48%" fy="49%">
  </radialGradient>
  <radialGradient id="id13" gradientUnits="objectBoundingBox" xlink:href="#id1" cx="50%" cy="45.0001%" r="50%" fx="50%" fy="45.0001%">
  </radialGradient>
  <radialGradient id="id14" gradientUnits="objectBoundingBox" xlink:href="#id1" cx="50.0001%" cy="50%" r="50.0001%" fx="50.0001%" fy="50%">
  </radialGradient>
  <radialGradient id="id15" gradientUnits="objectBoundingBox" xlink:href="#id1" cx="50%" cy="55.9997%" r="50%" fx="50%" fy="55.9997%">
  </radialGradient>
  <radialGradient id="id16" gradientUnits="objectBoundingBox" xlink:href="#id1" cx="49%" cy="52%" r="50%" fx="49%" fy="52%">
  </radialGradient>
  <radialGradient id="id17" gradientUnits="objectBoundingBox" xlink:href="#id1" cx="45.0003%" cy="49.9999%" r="50.0001%" fx="45.0003%" fy="49.9999%">
  </radialGradient>
  <radialGradient id="id18" gradientUnits="objectBoundingBox" xlink:href="#id1" cx="50%" cy="49.9999%" r="50.0001%" fx="50%" fy="49.9999%">
  </radialGradient>
 </defs>
 <g id="Layer_x0020_1">
  <metadata id="CorelCorpID_0Corel-Layer"/>
  <g id="_733338224">
   <path class="fil0" d="M484 167c5,12 -79,57 -100,65 -21,9 -42,6 -47,-6 -5,-12 8,-28 29,-37 21,-9 112,-35 117,-23z"/>
   <path class="fil1" d="M28 346c-5,-12 79,-57 100,-65 21,-9 42,-6 47,6 5,12 -8,28 -29,37 -21,9 -112,35 -117,23z"/>
   <path class="fil2" d="M483 347c-5,12 -96,-16 -117,-24 -21,-9 -34,-25 -29,-37 5,-12 26,-14 47,-6 21,9 104,55 99,67z"/>
   <path class="fil3" d="M29 166c5,-12 96,16 117,24 21,9 34,25 29,37 -5,12 -26,14 -47,6 -21,-9 -104,-55 -99,-67z"/>
   <path class="fil4" d="M160 34c12,-5 57,79 65,100 9,21 6,42 -6,47 -12,5 -28,-8 -37,-29 -9,-21 -35,-112 -23,-117z"/>
   <path class="fil5" d="M359 496c-12,5 -57,-79 -65,-100 -9,-21 -6,-42 6,-47 12,-5 28,8 37,29 9,21 35,112 23,117z"/>
   <path class="fil6" d="M152 496c-12,-5 16,-96 24,-117 9,-21 25,-34 37,-29 12,5 14,26 6,47 -9,21 -55,104 -67,99z"/>
   <path class="fil7" d="M353 35c12,5 -16,96 -24,117 -9,21 -25,34 -37,29 -12,-5 -14,-26 -6,-47 9,-21 55,-104 67,-99z"/>
   <path class="fil8" d="M60 439c-9,-9 51,-83 67,-99 16,-16 36,-22 45,-13 9,9 3,29 -13,45 -16,16 -91,75 -100,66z"/>
   <path class="fil9" d="M452 73c9,9 -51,83 -67,99 -16,16 -36,22 -45,13 -9,-9 -3,-29 13,-45 16,-16 91,-75 100,-66z"/>
   <path class="fil10" d="M451 440c-9,9 -83,-51 -99,-67 -16,-16 -22,-36 -13,-45 9,-9 29,-3 45,13 16,16 75,91 66,100z"/>
   <path class="fil11" d="M61 72c9,-9 83,51 99,67 16,16 22,36 13,45 -9,9 -29,3 -45,-13 -16,-16 -75,-91 -66,-100z"/>
   <path class="fil12" d="M505 257c0,13 -95,22 -117,22 -23,0 -41,-10 -41,-23 0,-13 18,-23 41,-23 23,0 117,11 117,24z"/>
   <path class="fil13" d="M7 255c0,-13 95,-22 117,-22 23,0 41,10 41,23 0,13 -18,23 -41,23 -23,0 -117,-11 -117,-24z"/>
   <path class="fil14" d="M255 505c-13,0 -22,-95 -22,-117 0,-23 10,-41 23,-41 13,0 23,18 23,41 0,23 -11,117 -24,117z"/>
   <path class="fil15" d="M256 7c13,0 22,95 22,117 0,23 -10,41 -23,41 -13,0 -23,-18 -23,-41 0,-23 11,-117 24,-117z"/>
   <circle id="SunCore" class="fil16" cx="256" cy="256" r="150"/>
  </g>
  <path class="fil17 str0" d="M242 189c46,-1 45,24 73,41 24,14 61,33 73,52 21,31 47,47 47,64 0,39 -133,34 -192,38 -59,4 -137,13 -181,-31 -23,-23 -14,-52 23,-88 13,-13 46,-18 66,-31 29,-19 48,-45 91,-46z"/>
  <path class="fil18 str0" d="M346 151c36,-1 35,16 56,26 18,9 47,22 56,34 16,20 36,30 36,41 0,25 -103,22 -148,25 -45,2 -106,8 -139,-20 -18,-15 -10,-33 17,-57 10,-8 36,-11 51,-20 22,-12 37,-29 70,-30z"/>
  <g id="_733338672">
   <polygon class="fil19" points="264,299 251,307 251,315 256,318 255,320 250,318 240,324 239,328 242,332 242,334 246,337 245,343 248,349 255,352 253,357 252,358 251,358 246,357 247,350 243,345 237,342 237,338 235,336 233,332 229,330 219,336 218,342 216,341 216,335 209,331 196,339 195,339 195,339 196,354 202,358 208,355 209,357 205,360 205,373 208,375 213,375 215,375 219,374 224,377 231,378 236,373 240,378 241,379 240,380 237,384 231,380 225,380 219,384 215,382 213,383 208,382 205,385 205,397 209,400 208,402 203,399 196,403 196,418 195,419 196,419 209,426 216,422 216,416 218,415 219,421 230,427 233,426 236,421 237,419 237,415 243,413 247,407 246,400 252,399 253,399 253,400 255,405 249,408 246,414 246,420 243,422 242,425 239,429 240,433 250,439 256,437 256,439 251,442 251,450 264,458 265,458 265,458 278,450 278,442 273,439 273,437 279,439 289,433 290,429 287,425 286,422 283,420 283,414 280,408 274,405 276,400 276,399 277,399 283,400 282,407 285,412 291,415 292,419 293,421 296,425 299,427 310,421 311,415 313,415 313,422 320,426 333,418 334,418 333,418 333,403 326,399 321,401 319,400 324,396 324,384 321,382 315,382 313,381 310,383 304,380 298,379 292,384 288,379 288,378 288,377 292,373 298,377 304,377 309,373 313,375 315,374 321,375 324,372 324,360 319,357 321,355 326,358 333,354 333,339 333,338 333,338 320,331 313,335 312,341 311,342 310,336 299,330 296,331 293,336 291,337 291,342 285,344 282,350 283,357 277,358 276,358 275,357 273,352 280,349 283,343 282,337 286,334 286,332 289,328 289,324 278,318 273,320 272,318 277,315 277,307 264,299 264,299 "/>
   <path class="fil20" d="M264 300l-12 7 0 7 5 3 1 0 0 1 -1 2 0 1 -1 0 -5 -2 -10 6 0 3 3 4 0 0 0 0 0 2 3 2 1 0 0 1 -1 6 3 5 6 3 1 0 0 1 -2 5 0 0 0 0 -1 1 0 0 0 0 -1 0 0 0 0 0 -6 -1 -1 0 0 -1 1 -7 -3 -5 -6 -3 -1 0 0 -1 0 -4 -1 -1 0 0 0 0 -2 -4 -3 -1 -10 5 -1 5 0 1 -1 0 -2 0 -1 0 0 -1 0 -6 -6 -3 -13 7 0 14 6 3 5 -3 1 0 1 1 1 1 1 1 -1 1 -4 3 0 11 2 2 5 0 0 0 0 0 2 1 3 -2 1 0 0 0 5 4 6 0 5 -4 1 -1 1 1 4 4 0 0 0 0 0 1 0 0 0 0 0 1 0 0 0 0 -4 4 -1 1 -1 -1 -5 -4 -6 0 -5 4 0 0 -1 0 -3 -2 -2 1 0 0 0 0 -5 0 -2 2 0 11 4 3 1 1 -1 1 -1 1 -1 1 -1 0 -5 -3 -6 3 0 14 13 7 6 -3 0 -6 0 -1 1 0 2 0 1 0 0 1 1 5 10 5 3 -1 2 -4 0 0 0 0 1 -1 0 -4 0 -1 1 0 6 -3 3 -5 -1 -7 0 -1 1 0 6 -1 0 0 0 0 1 0 0 0 0 0 0 1 0 0 0 0 2 5 0 1 -1 0 -6 3 -3 5 1 6 0 1 -1 0 -3 2 0 2 0 0 0 0 -3 4 0 3 10 6 5 -2 1 0 0 1 1 2 0 1 -1 0 -5 3 0 7 12 7 12 -7 0 -7 -5 -3 -1 0 0 -1 1 -2 0 -1 1 0 5 2 10 -6 0 -3 -3 -4 0 0 0 0 0 -2 -3 -2 -1 0 0 -1 1 -6 -3 -5 -6 -3 -1 0 0 -1 2 -5 0 0 0 0 1 -1 0 0 0 0 1 0 0 0 0 0 6 1 1 0 0 1 -1 7 3 5 6 3 1 0 0 1 0 4 1 1 0 0 0 0 2 4 3 1 10 -5 1 -5 0 -1 1 0 2 0 1 0 0 1 0 6 6 3 13 -7 0 -14 -6 -3 -5 3 -1 0 -1 -1 -1 -1 -1 -1 1 -1 4 -3 0 -11 -2 -2 -5 0 0 0 0 0 -2 -1 -3 2 -1 0 0 0 -5 -4 -6 0 -5 4 -1 1 -1 -1 -4 -4 0 0 0 0 0 -1 0 0 0 0 0 -1 0 0 0 0 4 -4 1 -1 1 1 5 4 6 0 5 -4 0 0 1 0 3 2 2 -1 0 0 0 0 5 0 2 -2 0 -11 -4 -3 -1 -1 1 -1 1 -1 1 -1 1 0 5 3 6 -3 0 -14 -13 -7 -6 3 0 6 0 1 -1 0 -2 0 -1 0 0 -1 -1 -5 -10 -5 -3 1 -2 4 0 0 0 0 -1 1 0 4 0 1 -1 0 -6 3 -3 5 1 7 0 1 -1 0 -6 1 0 0 0 0 -1 0 0 0 0 0 0 -1 0 0 0 0 -2 -5 0 -1 1 0 6 -3 3 -5 -1 -6 0 -1 1 0 3 -2 0 -2 0 0 0 0 3 -4 0 -3 -10 -6 -5 2 -1 0 0 -1 -1 -2 0 -1 1 0 5 -3 0 -7 -12 -7zm-14 6l13 -8 0 0 1 -2 1 2 0 0 13 8 0 0 0 1 0 8 0 1 0 0 -5 3 0 0 4 -2 0 0 0 0 10 6 0 0 0 0 1 4 0 0 0 0 -3 4 0 2 0 0 0 0 -3 2 1 6 0 0 0 0 -3 6 0 0 0 0 -6 3 2 4 0 0 1 0 5 -1 -1 -6 0 0 0 0 3 -5 0 0 0 0 5 -3 0 -4 0 0 0 0 1 -1 2 -5 0 0 0 0 4 -1 0 0 0 0 11 6 0 0 0 1 1 5 0 0 0 -5 0 -1 0 0 7 -4 0 0 0 0 13 7 0 0 2 0 -1 2 0 0 0 15 0 1 0 0 -7 4 0 0 0 0 -5 -2 0 0 4 3 0 0 0 1 0 12 0 0 0 0 -3 2 0 0 0 0 -5 0 -2 1 0 0 0 0 -3 -2 -5 4 0 0 0 0 -6 0 0 0 0 0 -5 -4 -3 3 0 0 0 1 3 3 5 -4 0 0 0 0 6 0 0 0 0 0 5 4 3 -2 0 0 0 0 2 1 5 0 0 0 0 0 3 2 0 0 0 0 0 12 0 1 0 0 -4 3 0 0 5 -2 0 0 0 0 7 4 0 0 0 1 0 15 0 0 1 2 -2 0 0 0 -13 7 0 0 0 0 -7 -4 0 0 0 -1 0 -5 0 0 -1 5 0 1 0 0 -11 6 0 0 0 0 -4 -1 0 0 0 0 -2 -5 -1 -1 0 0 0 0 0 -4 -5 -3 0 0 0 0 -3 -5 0 0 0 0 1 -6 -5 -1 0 0 0 1 -2 4 6 3 0 0 0 0 3 6 0 0 0 0 -1 6 3 2 0 0 0 0 0 2 3 4 0 0 0 0 -1 4 0 0 0 0 -10 6 0 0 0 0 -4 -2 0 0 5 3 0 0 0 1 0 8 0 1 0 0 -13 8 0 0 -1 2 -1 -2 0 0 -13 -8 0 0 0 -1 0 -8 0 -1 0 0 5 -3 0 0 -4 2 0 0 0 0 -10 -6 0 0 0 0 -1 -4 0 0 0 0 3 -4 0 -2 0 0 0 0 3 -2 -1 -6 0 0 0 0 3 -6 0 0 0 0 6 -3 -2 -4 0 0 -1 0 -5 1 1 6 0 0 0 0 -3 5 0 0 0 0 -5 3 0 4 0 0 0 0 -1 1 -2 5 0 0 0 0 -4 1 0 0 0 0 -11 -6 0 0 0 -1 -1 -5 0 0 0 5 0 1 0 0 -7 4 0 0 0 0 -13 -7 0 0 -2 0 1 -2 0 0 0 -15 0 -1 0 0 7 -4 0 0 0 0 5 2 0 0 -4 -3 0 0 0 -1 0 -12 0 0 0 0 3 -2 0 0 0 0 5 0 2 -1 0 0 0 0 3 2 5 -4 0 0 0 0 6 0 0 0 0 0 5 4 3 -3 0 0 0 -1 -3 -3 -5 4 0 0 0 0 -6 0 0 0 0 0 -5 -4 -3 2 0 0 0 0 -2 -1 -5 0 0 0 0 0 -3 -2 0 0 0 0 0 -12 0 -1 0 0 4 -3 0 0 -5 2 0 0 0 0 -7 -4 0 0 0 -1 0 -15 0 0 -1 -2 2 0 0 0 13 -7 0 0 0 0 7 4 0 0 0 1 0 5 0 0 1 -5 0 -1 0 0 11 -6 0 0 0 0 4 1 0 0 0 0 2 5 1 1 0 0 0 0 0 4 5 3 0 0 0 0 3 5 0 0 0 0 -1 6 5 1 0 0 0 -1 2 -4 -6 -3 0 0 0 0 -3 -6 0 0 0 0 1 -6 -3 -2 0 0 0 0 0 -2 -3 -4 0 0 0 0 1 -4 0 0 0 0 10 -6 0 0 0 0 4 2 0 0 -5 -3 0 0 0 -1 0 -8 0 -1 0 0z"/>
  </g>
 </g>
</svg>
