<?xml version="1.0" encoding="UTF-8"?>
<!DOCTYPE svg PUBLIC "-//W3C//DTD SVG 1.1//EN" "http://www.w3.org/Graphics/SVG/1.1/DTD/svg11.dtd">
<!-- Creator: CorelDRAW X6 -->
<svg xmlns="http://www.w3.org/2000/svg" xml:space="preserve" width="512px" height="512px" version="1.1" style="shape-rendering:geometricPrecision; text-rendering:geometricPrecision; image-rendering:optimizeQuality; fill-rule:evenodd; clip-rule:evenodd"
viewBox="0 0 512 512"
 xmlns:xlink="http://www.w3.org/1999/xlink">
 <defs>
  <style type="text/css">
   <![CDATA[
    .str1 {stroke:#CCCCCC;stroke-width:0.216}
    .str0 {stroke:#336699;stroke-width:2.00013}
    .fil1 {fill:url(#id0)}
    .fil2 {fill:url(#id1)}
    .fil0 {fill:url(#id2)}
   ]]>
  </style>
  <radialGradient id="id0" gradientUnits="objectBoundingBox" cx="37%" cy="52%" r="50%" fx="37%" fy="52%">
   <stop offset="0" style="stop-color:#FEFEFE"/>
   <stop offset="1" style="stop-color:#CCCCCC"/>
  </radialGradient>
  <radialGradient id="id1" gradientUnits="objectBoundingBox" cx="50%" cy="50%" r="50%" fx="50%" fy="50%">
   <stop offset="0" style="stop-color:#A7CEEF"/>
   <stop offset="1" style="stop-color:#0B8DFF"/>
  </radialGradient>
  <radialGradient id="id2" gradientUnits="objectBoundingBox" cx="50%" cy="49.9999%" r="50.0001%" fx="50%" fy="49.9999%">
   <stop offset="0" style="stop-color:#E6E6E6"/>
   <stop offset="1" style="stop-color:#DEF1FF"/>
  </radialGradient>
 </defs>
 <g id="Layer_x0020_1">
  <metadata id="CorelCorpID_0Corel-Layer"/>
  <path class="fil0 str0" d="M465 406c-42,44 -102,72 -168,72 -128,0 -232,-104 -232,-232 0,-108 74,-199 175,-225 -40,42 -64,98 -64,160 0,128 104,232 232,232 19,0 38,-2 56,-7z"/>
  <path class="fil1 str1" d="M346 151c36,-1 35,16 56,26 18,9 47,22 56,34 16,20 36,30 36,41 0,25 -103,22 -148,25 -45,2 -106,8 -139,-20 -18,-15 -10,-33 17,-57 10,-8 36,-11 51,-20 22,-12 37,-29 70,-30z"/>
  <path class="fil1 str1" d="M202 194c46,-1 45,16 73,26 24,9 61,22 73,34 21,20 47,30 47,41 0,25 -133,22 -192,25 -59,2 -137,8 -181,-20 -23,-15 -14,-33 23,-57 13,-8 46,-11 66,-20 29,-12 48,-29 91,-30z"/>
  <g id="_927987072">
   <path class="fil2" d="M205 291c6,0 3,12 6,26 3,13 11,27 11,31 0,8 -9,14 -20,14 -11,0 -20,-6 -20,-14 0,-4 10,-18 14,-31 4,-13 2,-26 8,-26z"/>
   <path class="fil2" d="M155 291c6,0 3,12 6,26 3,13 11,27 11,31 0,8 -9,14 -20,14 -11,0 -20,-6 -20,-14 0,-4 10,-18 14,-31 4,-13 2,-26 8,-26z"/>
   <path class="fil2" d="M262 290c6,0 3,12 6,26 3,13 11,27 11,31 0,8 -9,14 -20,14 -11,0 -20,-6 -20,-14 0,-4 10,-18 14,-31 4,-13 2,-26 8,-26z"/>
  </g>
  <g id="_927984064">
   <path class="fil2" d="M226 316c6,0 3,12 6,26 3,13 11,27 11,31 0,8 -9,14 -20,14 -11,0 -20,-6 -20,-14 0,-4 10,-18 14,-31 4,-13 2,-26 8,-26z"/>
   <path class="fil2" d="M176 316c6,0 3,12 6,26 3,13 11,27 11,31 0,8 -9,14 -20,14 -11,0 -20,-6 -20,-14 0,-4 10,-18 14,-31 4,-13 2,-26 8,-26z"/>
   <path class="fil2" d="M283 315c6,0 3,12 6,26 3,13 11,27 11,31 0,8 -9,14 -20,14 -11,0 -20,-6 -20,-14 0,-4 10,-18 14,-31 4,-13 2,-26 8,-26z"/>
  </g>
 </g>
</svg>
