<?xml version="1.0" encoding="UTF-8"?>
<!DOCTYPE svg PUBLIC "-//W3C//DTD SVG 1.1//EN" "http://www.w3.org/Graphics/SVG/1.1/DTD/svg11.dtd">
<!-- Creator: CorelDRAW X6 -->
<svg xmlns="http://www.w3.org/2000/svg" xml:space="preserve" width="512px" height="512px" version="1.1" style="shape-rendering:geometricPrecision; text-rendering:geometricPrecision; image-rendering:optimizeQuality; fill-rule:evenodd; clip-rule:evenodd"
viewBox="0 0 512 512"
 xmlns:xlink="http://www.w3.org/1999/xlink">
 <defs>
  <style type="text/css">
   <![CDATA[
    .str0 {stroke:#CCCCCC;stroke-width:0.216}
    .fil0 {fill:url(#id0)}
    .fil1 {fill:url(#id1)}
   ]]>
  </style>
  <linearGradient id="id0" gradientUnits="objectBoundingBox" x1="0%" y1="49.9999%" x2="100%" y2="49.9999%">
   <stop offset="0" style="stop-color:#CCCCCC"/>
   <stop offset="1" style="stop-color:gray"/>
  </linearGradient>
  <radialGradient id="id1" gradientUnits="objectBoundingBox" cx="37%" cy="52%" r="50%" fx="37%" fy="52%">
   <stop offset="0" style="stop-color:#FEFEFE"/>
   <stop offset="1" style="stop-color:#CCCCCC"/>
  </radialGradient>
 </defs>
 <g id="Layer_x0020_1">
  <metadata id="CorelCorpID_0Corel-Layer"/>
  <path class="fil0 str0" d="M302 72c46,-1 45,24 73,41 24,14 61,33 73,52 21,31 47,47 47,64 0,39 -133,34 -192,38 -59,4 -137,13 -181,-31 -23,-23 -14,-52 23,-88 13,-13 46,-18 66,-31 29,-19 48,-45 91,-46z"/>
  <path class="fil0 str0" d="M262 247c46,-1 45,24 73,41 24,14 61,33 73,52 21,31 47,47 47,64 0,39 -133,34 -192,38 -59,4 -137,13 -181,-31 -23,-23 -14,-52 23,-88 13,-13 46,-18 66,-31 29,-19 48,-45 91,-46z"/>
  <path class="fil1 str0" d="M357 192c36,-1 35,16 56,26 18,9 47,22 56,34 16,20 36,30 36,41 0,25 -103,22 -148,25 -45,2 -106,8 -139,-20 -18,-15 -10,-33 17,-57 10,-8 36,-11 51,-20 22,-12 37,-29 70,-30z"/>
  <path class="fil1 str0" d="M164 196c36,-1 35,16 56,26 18,9 47,22 56,34 16,20 36,30 36,41 0,25 -103,22 -148,25 -45,2 -106,8 -139,-20 -18,-15 -10,-33 17,-57 10,-8 36,-11 51,-20 22,-12 37,-29 70,-30z"/>
 </g>
</svg>
