<?xml version="1.0" encoding="UTF-8"?>
<!DOCTYPE svg PUBLIC "-//W3C//DTD SVG 1.1//EN" "http://www.w3.org/Graphics/SVG/1.1/DTD/svg11.dtd">
<!-- Creator: CorelDRAW X6 -->
<svg xmlns="http://www.w3.org/2000/svg" xml:space="preserve" width="512px" height="512px" version="1.1" style="shape-rendering:geometricPrecision; text-rendering:geometricPrecision; image-rendering:optimizeQuality; fill-rule:evenodd; clip-rule:evenodd"
viewBox="0 0 512 512"
 xmlns:xlink="http://www.w3.org/1999/xlink">
 <defs>
  <style type="text/css">
   <![CDATA[
    .str1 {stroke:#CCCCCC;stroke-width:0.216}
    .str0 {stroke:#336699;stroke-width:2.00013}
    .fil1 {fill:url(#id0)}
    .fil0 {fill:url(#id1)}
   ]]>
  </style>
  <radialGradient id="id0" gradientUnits="objectBoundingBox" cx="37%" cy="52%" r="50%" fx="37%" fy="52%">
   <stop offset="0" style="stop-color:#FEFEFE"/>
   <stop offset="1" style="stop-color:#CCCCCC"/>
  </radialGradient>
  <radialGradient id="id1" gradientUnits="objectBoundingBox" cx="50%" cy="49.9999%" r="50.0001%" fx="50%" fy="49.9999%">
   <stop offset="0" style="stop-color:#E6E6E6"/>
   <stop offset="1" style="stop-color:#DEF1FF"/>
  </radialGradient>
 </defs>
 <g id="Layer_x0020_1">
  <metadata id="CorelCorpID_0Corel-Layer"/>
  <path class="fil0 str0" d="M465 406c-42,44 -102,72 -168,72 -128,0 -232,-104 -232,-232 0,-108 74,-199 175,-225 -40,42 -64,98 -64,160 0,128 104,232 232,232 19,0 38,-2 56,-7z"/>
  <path class="fil1 str1" d="M333 170c44,0 43,5 69,8 22,3 58,6 70,10 20,6 45,9 45,12 0,7 -127,6 -183,7 -56,1 -131,2 -172,-6 -22,-4 -13,-10 22,-17 12,-2 44,-3 63,-6 28,-4 46,-8 86,-9z"/>
  <path class="fil1 str1" d="M265 117c44,0 43,5 69,8 22,3 58,6 70,10 20,6 45,9 45,12 0,7 -127,6 -183,7 -56,1 -131,2 -172,-6 -22,-4 -13,-10 22,-17 12,-2 44,-3 63,-6 28,-4 46,-8 86,-9z"/>
  <path class="fil1 str1" d="M374 225c22,0 22,5 35,8 11,3 29,6 35,10 10,6 23,9 23,12 0,7 -64,6 -92,7 -28,1 -66,2 -86,-6 -11,-4 -7,-10 11,-17 6,-2 22,-3 32,-6 14,-4 23,-8 43,-9z"/>
 </g>
</svg>
