<?xml version="1.0" encoding="UTF-8"?>
<!DOCTYPE svg PUBLIC "-//W3C//DTD SVG 1.1//EN" "http://www.w3.org/Graphics/SVG/1.1/DTD/svg11.dtd">
<!-- Creator: CorelDRAW X6 -->
<svg xmlns="http://www.w3.org/2000/svg" xml:space="preserve" width="512px" height="512px" version="1.1" style="shape-rendering:geometricPrecision; text-rendering:geometricPrecision; image-rendering:optimizeQuality; fill-rule:evenodd; clip-rule:evenodd"
viewBox="0 0 512 512"
 xmlns:xlink="http://www.w3.org/1999/xlink">
 <defs>
  <style type="text/css">
   <![CDATA[
    .str0 {stroke:#CCCCCC;stroke-width:0.216}
    .fil2 {fill:none}
    .fil0 {fill:url(#id1)}
    .fil1 {fill:url(#id2)}
   ]]>
  </style>
   <clipPath id="id0">
    <rect x="89" y="311" width="191.269" height="41.4867"/>
   </clipPath>
  <radialGradient id="id1" gradientUnits="objectBoundingBox" cx="37%" cy="52%" r="50%" fx="37%" fy="52%">
   <stop offset="0" style="stop-color:#FEFEFE"/>
   <stop offset="1" style="stop-color:#CCCCCC"/>
  </radialGradient>
  <radialGradient id="id2" gradientUnits="objectBoundingBox" xlink:href="#id1" cx="37.0001%" cy="52.0004%" r="50.0001%" fx="37.0001%" fy="52.0004%">
  </radialGradient>
 </defs>
 <g id="Layer_x0020_1">
  <metadata id="CorelCorpID_0Corel-Layer"/>
  <path class="fil0 str0" d="M253 170c44,0 43,5 69,8 22,3 58,6 70,10 20,6 45,9 45,12 0,7 -127,6 -183,7 -56,1 -131,2 -172,-6 -22,-4 -13,-10 22,-17 12,-2 44,-3 63,-6 28,-4 46,-8 86,-9z"/>
  <path class="fil0 str0" d="M272 98c44,0 43,5 69,8 22,3 58,6 70,10 20,6 45,9 45,12 0,7 -127,6 -183,7 -56,1 -131,2 -172,-6 -22,-4 -13,-10 22,-17 12,-2 44,-3 63,-6 28,-4 46,-8 86,-9z"/>
  <path class="fil0 str0" d="M388 251c22,0 22,5 35,8 11,3 29,6 35,10 10,6 23,9 23,12 0,7 -64,6 -92,7 -28,1 -66,2 -86,-6 -11,-4 -7,-10 11,-17 6,-2 22,-3 32,-6 14,-4 23,-8 43,-9z"/>
  <path class="fil0 str0" d="M308 330c44,0 43,5 69,8 22,3 58,6 70,10 20,6 45,9 45,12 0,7 -127,6 -183,7 -56,1 -131,2 -172,-6 -22,-4 -13,-10 22,-17 12,-2 44,-3 63,-6 28,-4 46,-8 86,-9z"/>
  <path class="fil0 str0" d="M263 277c44,0 43,5 69,8 22,3 58,6 70,10 20,6 45,9 45,12 0,7 -127,6 -183,7 -56,1 -131,2 -172,-6 -22,-4 -13,-10 22,-17 12,-2 44,-3 63,-6 28,-4 46,-8 86,-9z"/>
  <g style="clip-path:url(#id0)">
   <g id="Layer_x0020_1_0">
    <metadata id="CorelCorpID_1Corel-Layer"/>
    <path class="fil1 str0" d="M187 312c22,0 22,5 35,8 11,3 29,6 35,10 10,6 23,9 23,12 0,7 -64,6 -92,7 -28,1 -66,2 -86,-6 -11,-4 -7,-10 11,-17 6,-2 22,-3 32,-6 14,-4 23,-8 43,-9z"/>
   </g>
  </g>
  <rect class="fil2" x="90" y="312" width="189.269" height="39.4866"/>
  <path class="fil0 str0" d="M186 135c22,0 22,5 35,8 11,3 29,6 35,10 10,6 23,9 23,12 0,7 -64,6 -92,7 -28,1 -66,2 -86,-6 -11,-4 -7,-10 11,-17 6,-2 22,-3 32,-6 14,-4 23,-8 43,-9z"/>
  <path class="fil0 str0" d="M203 217c44,0 43,5 69,8 22,3 58,6 70,10 20,6 45,9 45,12 0,7 -127,6 -183,7 -56,1 -131,2 -172,-6 -22,-4 -13,-10 22,-17 12,-2 44,-3 63,-6 28,-4 46,-8 86,-9z"/>
  <path class="fil0 str0" d="M255 385c44,0 43,5 69,8 22,3 58,6 70,10 20,6 45,9 45,12 0,7 -127,6 -183,7 -56,1 -131,2 -172,-6 -22,-4 -13,-10 22,-17 12,-2 44,-3 63,-6 28,-4 46,-8 86,-9z"/>
 </g>
</svg>
