<?xml version="1.0" encoding="UTF-8"?>
<!DOCTYPE svg PUBLIC "-//W3C//DTD SVG 1.1//EN" "http://www.w3.org/Graphics/SVG/1.1/DTD/svg11.dtd">
<!-- Creator: CorelDRAW X6 -->
<svg xmlns="http://www.w3.org/2000/svg" xml:space="preserve" width="512px" height="512px" version="1.1" style="shape-rendering:geometricPrecision; text-rendering:geometricPrecision; image-rendering:optimizeQuality; fill-rule:evenodd; clip-rule:evenodd"
viewBox="0 0 512 512"
 xmlns:xlink="http://www.w3.org/1999/xlink">
 <defs>
  <style type="text/css">
   <![CDATA[
    .str1 {stroke:#CCCCCC;stroke-width:0.216}
    .str0 {stroke:black;stroke-width:0.566929}
    .fil0 {fill:none}
    .fil19 {fill:#DEF1FF}
    .fil20 {fill:#0C4278;fill-rule:nonzero}
    .fil6 {fill:url(#id0)}
    .fil11 {fill:url(#id1)}
    .fil3 {fill:url(#id2)}
    .fil13 {fill:url(#id3)}
    .fil1 {fill:url(#id4)}
    .fil10 {fill:url(#id5)}
    .fil8 {fill:url(#id6)}
    .fil18 {fill:url(#id7)}
    .fil17 {fill:url(#id8)}
    .fil16 {fill:url(#id9)}
    .fil5 {fill:url(#id10)}
    .fil12 {fill:url(#id11)}
    .fil4 {fill:url(#id12)}
    .fil14 {fill:url(#id13)}
    .fil2 {fill:url(#id14)}
    .fil9 {fill:url(#id15)}
    .fil7 {fill:url(#id16)}
    .fil15 {fill:url(#id17)}
   ]]>
  </style>
  <radialGradient id="id0" gradientUnits="objectBoundingBox" cx="55.9999%" cy="50%" r="50%" fx="55.9999%" fy="50%">
   <stop offset="0" style="stop-color:#FCEF70"/>
   <stop offset="1" style="stop-color:#FFC847"/>
  </radialGradient>
  <radialGradient id="id1" gradientUnits="objectBoundingBox" xlink:href="#id0" cx="52%" cy="51%" r="50%" fx="52%" fy="51%">
  </radialGradient>
  <radialGradient id="id2" gradientUnits="objectBoundingBox" xlink:href="#id0" cx="50%" cy="54.9999%" r="50%" fx="50%" fy="54.9999%">
  </radialGradient>
  <radialGradient id="id3" gradientUnits="objectBoundingBox" xlink:href="#id0" cx="49.9999%" cy="50%" r="50.0001%" fx="49.9999%" fy="50%">
  </radialGradient>
  <radialGradient id="id4" gradientUnits="objectBoundingBox" xlink:href="#id0" cx="50%" cy="44.0003%" r="50%" fx="50%" fy="44.0003%">
  </radialGradient>
  <radialGradient id="id5" gradientUnits="objectBoundingBox" xlink:href="#id0" cx="51%" cy="48%" r="50%" fx="51%" fy="48%">
  </radialGradient>
  <radialGradient id="id6" gradientUnits="objectBoundingBox" xlink:href="#id0" cx="54.9997%" cy="50.0001%" r="50.0001%" fx="54.9997%" fy="50.0001%">
  </radialGradient>
  <radialGradient id="id7" gradientUnits="objectBoundingBox" cx="37%" cy="52%" r="50%" fx="37%" fy="52%">
   <stop offset="0" style="stop-color:#FEFEFE"/>
   <stop offset="1" style="stop-color:#CCCCCC"/>
  </radialGradient>
  <radialGradient id="id8" gradientUnits="objectBoundingBox" cx="50%" cy="50%" r="50%" fx="50%" fy="50%">
   <stop offset="0" style="stop-color:yellow"/>
   <stop offset="1" style="stop-color:#FF6600"/>
  </radialGradient>
  <radialGradient id="id9" gradientUnits="objectBoundingBox" xlink:href="#id0" cx="50%" cy="49.9999%" r="50.0001%" fx="50%" fy="49.9999%">
  </radialGradient>
  <radialGradient id="id10" gradientUnits="objectBoundingBox" xlink:href="#id0" cx="44.0001%" cy="50%" r="50%" fx="44.0001%" fy="50%">
  </radialGradient>
  <radialGradient id="id11" gradientUnits="objectBoundingBox" xlink:href="#id0" cx="48%" cy="49%" r="50%" fx="48%" fy="49%">
  </radialGradient>
  <radialGradient id="id12" gradientUnits="objectBoundingBox" xlink:href="#id0" cx="50%" cy="45.0001%" r="50%" fx="50%" fy="45.0001%">
  </radialGradient>
  <radialGradient id="id13" gradientUnits="objectBoundingBox" xlink:href="#id0" cx="50.0001%" cy="50%" r="50.0001%" fx="50.0001%" fy="50%">
  </radialGradient>
  <radialGradient id="id14" gradientUnits="objectBoundingBox" xlink:href="#id0" cx="50%" cy="55.9997%" r="50%" fx="50%" fy="55.9997%">
  </radialGradient>
  <radialGradient id="id15" gradientUnits="objectBoundingBox" xlink:href="#id0" cx="49%" cy="52%" r="50%" fx="49%" fy="52%">
  </radialGradient>
  <radialGradient id="id16" gradientUnits="objectBoundingBox" xlink:href="#id0" cx="45.0003%" cy="49.9999%" r="50.0001%" fx="45.0003%" fy="49.9999%">
  </radialGradient>
  <radialGradient id="id17" gradientUnits="objectBoundingBox" xlink:href="#id0" cx="50%" cy="49.9999%" r="50.0001%" fx="50%" fy="49.9999%">
  </radialGradient>
 </defs>
 <g id="Layer_x0020_1">
  <metadata id="CorelCorpID_0Corel-Layer"/>
  <rect class="fil0 str0" width="512" height="512"/>
  <g id="_730854720">
   <path class="fil1" d="M484 167c5,12 -79,57 -100,65 -21,9 -42,6 -47,-6 -5,-12 8,-28 29,-37 21,-9 112,-35 117,-23z"/>
   <path class="fil2" d="M28 346c-5,-12 79,-57 100,-65 21,-9 42,-6 47,6 5,12 -8,28 -29,37 -21,9 -112,35 -117,23z"/>
   <path class="fil3" d="M483 347c-5,12 -96,-16 -117,-24 -21,-9 -34,-25 -29,-37 5,-12 26,-14 47,-6 21,9 104,55 99,67z"/>
   <path class="fil4" d="M29 166c5,-12 96,16 117,24 21,9 34,25 29,37 -5,12 -26,14 -47,6 -21,-9 -104,-55 -99,-67z"/>
   <path class="fil5" d="M160 34c12,-5 57,79 65,100 9,21 6,42 -6,47 -12,5 -28,-8 -37,-29 -9,-21 -35,-112 -23,-117z"/>
   <path class="fil6" d="M359 496c-12,5 -57,-79 -65,-100 -9,-21 -6,-42 6,-47 12,-5 28,8 37,29 9,21 35,112 23,117z"/>
   <path class="fil7" d="M152 496c-12,-5 16,-96 24,-117 9,-21 25,-34 37,-29 12,5 14,26 6,47 -9,21 -55,104 -67,99z"/>
   <path class="fil8" d="M353 35c12,5 -16,96 -24,117 -9,21 -25,34 -37,29 -12,-5 -14,-26 -6,-47 9,-21 55,-104 67,-99z"/>
   <path class="fil9" d="M60 439c-9,-9 51,-83 67,-99 16,-16 36,-22 45,-13 9,9 3,29 -13,45 -16,16 -91,75 -100,66z"/>
   <path class="fil10" d="M452 73c9,9 -51,83 -67,99 -16,16 -36,22 -45,13 -9,-9 -3,-29 13,-45 16,-16 91,-75 100,-66z"/>
   <path class="fil11" d="M451 440c-9,9 -83,-51 -99,-67 -16,-16 -22,-36 -13,-45 9,-9 29,-3 45,13 16,16 75,91 66,100z"/>
   <path class="fil12" d="M61 72c9,-9 83,51 99,67 16,16 22,36 13,45 -9,9 -29,3 -45,-13 -16,-16 -75,-91 -66,-100z"/>
   <path class="fil13" d="M505 257c0,13 -95,22 -117,22 -23,0 -41,-10 -41,-23 0,-13 18,-23 41,-23 23,0 117,11 117,24z"/>
   <path class="fil14" d="M7 255c0,-13 95,-22 117,-22 23,0 41,10 41,23 0,13 -18,23 -41,23 -23,0 -117,-11 -117,-24z"/>
   <path class="fil15" d="M255 505c-13,0 -22,-95 -22,-117 0,-23 10,-41 23,-41 13,0 23,18 23,41 0,23 -11,117 -24,117z"/>
   <path class="fil16" d="M256 7c13,0 22,95 22,117 0,23 -10,41 -23,41 -13,0 -23,-18 -23,-41 0,-23 11,-117 24,-117z"/>
   <circle id="SunCore" class="fil17" cx="256" cy="256" r="150"/>
  </g>
  <path class="fil18 str1" d="M346 151c36,-1 35,16 56,26 18,9 47,22 56,34 16,20 36,30 36,41 0,25 -103,22 -148,25 -45,2 -106,8 -139,-20 -18,-15 -10,-33 17,-57 10,-8 36,-11 51,-20 22,-12 37,-29 70,-30z"/>
  <path class="fil18 str1" d="M202 194c46,-1 45,16 73,26 24,9 61,22 73,34 21,20 47,30 47,41 0,25 -133,22 -192,25 -59,2 -137,8 -181,-20 -23,-15 -14,-33 23,-57 13,-8 46,-11 66,-20 29,-12 48,-29 91,-30z"/>
  <polygon class="fil19" points="251,261 238,269 238,277 243,280 243,282 237,279 227,286 226,290 229,294 230,296 233,299 233,305 236,311 242,314 240,319 240,320 239,320 233,319 234,312 231,307 225,304 224,300 223,298 220,293 217,292 206,298 205,304 203,303 203,297 196,293 183,301 182,301 183,301 183,316 190,320 195,317 197,319 192,322 192,334 195,337 201,337 203,337 206,335 212,339 218,339 224,335 228,340 228,341 228,341 224,346 218,342 212,342 207,346 203,344 201,344 195,344 192,346 192,359 197,362 195,364 190,361 183,365 183,380 183,380 183,380 196,388 203,384 204,378 205,377 206,383 217,389 220,387 223,383 225,381 225,377 231,374 234,369 233,362 239,361 240,361 241,362 243,367 236,370 233,375 234,382 230,384 230,386 227,391 227,395 238,401 243,399 244,401 239,404 239,412 252,420 252,420 252,420 265,412 265,404 260,401 261,399 266,401 276,395 277,391 274,386 274,384 270,382 271,375 268,370 261,367 263,362 264,360 265,360 270,361 269,368 273,374 279,377 279,381 281,382 283,387 287,388 297,383 298,377 300,377 300,383 307,387 320,380 321,380 321,380 320,364 314,360 308,363 307,362 311,358 311,346 308,344 303,344 301,343 297,345 292,341 285,341 279,345 276,341 275,340 276,339 279,335 285,339 291,339 297,335 301,337 303,336 308,336 311,334 311,322 307,318 308,317 313,320 320,316 320,301 321,300 320,300 307,293 300,297 300,303 298,303 297,297 286,292 283,293 280,298 279,299 279,303 273,306 269,312 270,319 264,320 263,320 263,319 261,314 267,311 270,305 270,299 273,296 274,294 277,290 276,286 266,279 260,282 260,280 265,277 265,269 252,261 251,260 "/>
  <path class="fil20" d="M251 262l-12 7 0 7 5 3 1 0 0 1 -1 2 0 1 -1 0 -5 -2 -10 6 0 3 3 4 0 0 0 0 0 2 3 2 1 0 0 1 -1 6 3 5 6 3 1 0 0 1 -2 5 0 0 0 0 -1 1 0 0 0 0 -1 0 0 0 0 0 -6 -1 -1 0 0 -1 1 -7 -3 -5 -6 -3 -1 0 0 -1 0 -4 -1 -1 0 0 0 0 -2 -4 -3 -1 -10 5 -1 5 0 1 -1 0 -2 0 -1 0 0 -1 0 -6 -6 -3 -13 7 0 14 6 3 5 -3 1 0 1 1 1 1 1 1 -1 1 -4 3 0 11 2 2 5 0 0 0 0 0 2 1 3 -2 1 0 0 0 5 4 6 0 5 -4 1 -1 1 1 4 4 0 0 0 0 0 1 0 0 0 0 0 1 0 0 0 0 -4 4 -1 1 -1 -1 -5 -4 -6 0 -5 4 0 0 -1 0 -3 -2 -2 1 0 0 0 0 -5 0 -2 2 0 11 4 3 1 1 -1 1 -1 1 -1 1 -1 0 -5 -3 -6 3 0 14 13 7 6 -3 0 -6 0 -1 1 0 2 0 1 0 0 1 1 5 10 5 3 -1 2 -4 0 0 0 0 1 -1 0 -4 0 -1 1 0 6 -3 3 -5 -1 -7 0 -1 1 0 6 -1 0 0 0 0 1 0 0 0 0 0 0 1 0 0 0 0 2 5 0 1 -1 0 -6 3 -3 5 1 6 0 1 -1 0 -3 2 0 2 0 0 0 0 -3 4 0 3 10 6 5 -2 1 0 0 1 1 2 0 1 -1 0 -5 3 0 7 12 7 12 -7 0 -7 -5 -3 -1 0 0 -1 1 -2 0 -1 1 0 5 2 10 -6 0 -3 -3 -4 0 0 0 0 0 -2 -3 -2 -1 0 0 -1 1 -6 -3 -5 -6 -3 -1 0 0 -1 2 -5 0 0 0 0 1 -1 0 0 0 0 1 0 0 0 0 0 6 1 1 0 0 1 -1 7 3 5 6 3 1 0 0 1 0 4 1 1 0 0 0 0 2 4 3 1 10 -5 1 -5 0 -1 1 0 2 0 1 0 0 1 0 6 6 3 13 -7 0 -14 -6 -3 -5 3 -1 0 -1 -1 -1 -1 -1 -1 1 -1 4 -3 0 -11 -2 -2 -5 0 0 0 0 0 -2 -1 -3 2 -1 0 0 0 -5 -4 -6 0 -5 4 -1 1 -1 -1 -4 -4 0 0 0 0 0 -1 0 0 0 0 0 -1 0 0 0 0 4 -4 1 -1 1 1 5 4 6 0 5 -4 0 0 1 0 3 2 2 -1 0 0 0 0 5 0 2 -2 0 -11 -4 -3 -1 -1 1 -1 1 -1 1 -1 1 0 5 3 6 -3 0 -14 -13 -7 -6 3 0 6 0 1 -1 0 -2 0 -1 0 0 -1 -1 -5 -10 -5 -3 1 -2 4 0 0 0 0 -1 1 0 4 0 1 -1 0 -6 3 -3 5 1 7 0 1 -1 0 -6 1 0 0 0 0 -1 0 0 0 0 0 0 -1 0 0 0 0 -2 -5 0 -1 1 0 6 -3 3 -5 -1 -6 0 -1 1 0 3 -2 0 -2 0 0 0 0 3 -4 0 -3 -10 -6 -5 2 -1 0 0 -1 -1 -2 0 -1 1 0 5 -3 0 -7 -12 -7zm-14 6l13 -8 0 0 1 -2 1 2 0 0 13 8 0 0 0 1 0 8 0 1 0 0 -5 3 0 0 4 -2 0 0 0 0 10 6 0 0 0 0 1 4 0 0 0 0 -3 4 0 2 0 0 0 0 -3 2 1 6 0 0 0 0 -3 6 0 0 0 0 -6 3 2 4 0 0 1 0 5 -1 -1 -6 0 0 0 0 3 -5 0 0 0 0 5 -3 0 -4 0 0 0 0 1 -1 2 -5 0 0 0 0 4 -1 0 0 0 0 11 6 0 0 0 1 1 5 0 0 0 -5 0 -1 0 0 7 -4 0 0 0 0 13 7 0 0 2 0 -1 2 0 0 0 15 0 1 0 0 -7 4 0 0 0 0 -5 -2 0 0 4 3 0 0 0 1 0 12 0 0 0 0 -3 2 0 0 0 0 -5 0 -2 1 0 0 0 0 -3 -2 -5 4 0 0 0 0 -6 0 0 0 0 0 -5 -4 -3 3 0 0 0 1 3 3 5 -4 0 0 0 0 6 0 0 0 0 0 5 4 3 -2 0 0 0 0 2 1 5 0 0 0 0 0 3 2 0 0 0 0 0 12 0 1 0 0 -4 3 0 0 5 -2 0 0 0 0 7 4 0 0 0 1 0 15 0 0 1 2 -2 0 0 0 -13 7 0 0 0 0 -7 -4 0 0 0 -1 0 -5 0 0 -1 5 0 1 0 0 -11 6 0 0 0 0 -4 -1 0 0 0 0 -2 -5 -1 -1 0 0 0 0 0 -4 -5 -3 0 0 0 0 -3 -5 0 0 0 0 1 -6 -5 -1 0 0 0 1 -2 4 6 3 0 0 0 0 3 6 0 0 0 0 -1 6 3 2 0 0 0 0 0 2 3 4 0 0 0 0 -1 4 0 0 0 0 -10 6 0 0 0 0 -4 -2 0 0 5 3 0 0 0 1 0 8 0 1 0 0 -13 8 0 0 -1 2 -1 -2 0 0 -13 -8 0 0 0 -1 0 -8 0 -1 0 0 5 -3 0 0 -4 2 0 0 0 0 -10 -6 0 0 0 0 -1 -4 0 0 0 0 3 -4 0 -2 0 0 0 0 3 -2 -1 -6 0 0 0 0 3 -6 0 0 0 0 6 -3 -2 -4 0 0 -1 0 -5 1 1 6 0 0 0 0 -3 5 0 0 0 0 -5 3 0 4 0 0 0 0 -1 1 -2 5 0 0 0 0 -4 1 0 0 0 0 -11 -6 0 0 0 -1 -1 -5 0 0 0 5 0 1 0 0 -7 4 0 0 0 0 -13 -7 0 0 -2 0 1 -2 0 0 0 -15 0 -1 0 0 7 -4 0 0 0 0 5 2 0 0 -4 -3 0 0 0 -1 0 -12 0 0 0 0 3 -2 0 0 0 0 5 0 2 -1 0 0 0 0 3 2 5 -4 0 0 0 0 6 0 0 0 0 0 5 4 3 -3 0 0 0 -1 -3 -3 -5 4 0 0 0 0 -6 0 0 0 0 0 -5 -4 -3 2 0 0 0 0 -2 -1 -5 0 0 0 0 0 -3 -2 0 0 0 0 0 -12 0 -1 0 0 4 -3 0 0 -5 2 0 0 0 0 -7 -4 0 0 0 -1 0 -15 0 0 -1 -2 2 0 0 0 13 -7 0 0 0 0 7 4 0 0 0 1 0 5 0 0 1 -5 0 -1 0 0 11 -6 0 0 0 0 4 1 0 0 0 0 2 5 1 1 0 0 0 0 0 4 5 3 0 0 0 0 3 5 0 0 0 0 -1 6 5 1 0 0 0 -1 2 -4 -6 -3 0 0 0 0 -3 -6 0 0 0 0 1 -6 -3 -2 0 0 0 0 0 -2 -3 -4 0 0 0 0 1 -4 0 0 0 0 10 -6 0 0 0 0 4 2 0 0 -5 -3 0 0 0 -1 0 -8 0 -1 0 0z"/>
 </g>
</svg>
