<?xml version="1.0" encoding="UTF-8"?>
<!DOCTYPE svg PUBLIC "-//W3C//DTD SVG 1.1//EN" "http://www.w3.org/Graphics/SVG/1.1/DTD/svg11.dtd">
<!-- Creator: CorelDRAW X6 -->
<svg xmlns="http://www.w3.org/2000/svg" xml:space="preserve" width="512px" height="512px" version="1.1" style="shape-rendering:geometricPrecision; text-rendering:geometricPrecision; image-rendering:optimizeQuality; fill-rule:evenodd; clip-rule:evenodd"
viewBox="0 0 512 512"
 xmlns:xlink="http://www.w3.org/1999/xlink">
 <defs>
  <style type="text/css">
   <![CDATA[
    .str0 {stroke:#CCCCCC;stroke-width:0.216}
    .str1 {stroke:#0C4278;stroke-width:1.99984}
    .fil2 {fill:#DEF1FF}
    .fil0 {fill:url(#id0)}
    .fil1 {fill:url(#id1)}
   ]]>
  </style>
  <linearGradient id="id0" gradientUnits="userSpaceOnUse" x1="47.5129" y1="237.613" x2="442.92" y2="237.613">
   <stop offset="0" style="stop-color:#CCCCCC"/>
   <stop offset="1" style="stop-color:gray"/>
  </linearGradient>
  <radialGradient id="id1" gradientUnits="objectBoundingBox" cx="37%" cy="52%" r="50%" fx="37%" fy="52%">
   <stop offset="0" style="stop-color:#FEFEFE"/>
   <stop offset="1" style="stop-color:#CCCCCC"/>
  </radialGradient>
 </defs>
 <g id="Layer_x0020_1">
  <metadata id="CorelCorpID_0Corel-Layer"/>
  <path class="fil0 str0" d="M250 134c46,-1 45,24 73,41 24,14 61,33 73,52 21,31 47,47 47,64 0,39 -133,34 -192,38 -59,4 -137,13 -181,-31 -23,-23 -14,-52 23,-88 13,-13 46,-18 66,-31 29,-19 48,-45 91,-46z"/>
  <path class="fil1 str0" d="M353 96c36,-1 35,16 56,26 18,9 47,22 56,34 16,20 36,30 36,41 0,25 -103,22 -148,25 -45,2 -106,8 -139,-20 -18,-15 -10,-33 17,-57 10,-8 36,-11 51,-20 22,-12 37,-29 70,-30z"/>
  <path class="fil1 str0" d="M179 117c36,-1 35,16 56,26 18,9 47,22 56,34 16,20 36,30 36,41 0,25 -103,22 -148,25 -45,2 -106,8 -139,-20 -18,-15 -10,-33 17,-57 10,-8 36,-11 51,-20 22,-12 37,-29 70,-30z"/>
  <path class="fil2 str1" d="M110 264l-13 8 0 8 5 3 -1 2 -5 -2 -10 6 -1 4 3 5 0 2 4 2 -1 7 3 6 6 3 -2 5 -1 1 -1 0 -6 -1 1 -7 -3 -5 -6 -3 0 -4 -2 -1 -2 -5 -4 -1 -11 6 -1 6 -2 0 0 -6 -7 -4 -13 7 0 0 0 0 0 15 7 4 5 -3 1 1 -5 4 0 12 3 2 5 0 2 1 4 -2 5 4 6 0 6 -4 4 4 0 1 0 1 -4 4 -6 -4 -6 0 -5 4 -4 -2 -2 1 -5 0 -3 2 0 12 5 4 -1 1 -5 -3 -7 4 0 15 0 0 0 0 13 7 7 -4 0 -6 2 0 1 6 11 6 4 -1 2 -5 2 -1 0 -4 6 -3 3 -5 -1 -7 6 -1 1 0 0 1 2 5 -6 3 -3 6 1 7 -4 2 0 2 -3 5 1 4 10 6 5 -2 1 2 -5 3 0 8 13 8 0 0 0 0 13 -8 0 -8 -5 -3 1 -2 5 2 10 -6 1 -4 -3 -5 0 -2 -4 -2 1 -7 -3 -6 -6 -3 2 -5 1 -1 1 0 6 1 -1 7 3 5 6 3 0 4 2 1 2 5 4 1 11 -6 1 -6 2 0 0 6 7 4 13 -7 0 0 0 0 0 -15 -7 -4 -5 3 -1 -1 5 -4 0 -12 -3 -2 -5 0 -2 -1 -4 2 -5 -4 -6 0 -6 4 -4 -4 0 -1 0 -1 4 -4 6 4 6 0 5 -4 4 2 2 -1 5 0 3 -2 0 -12 -5 -4 1 -1 5 3 7 -4 0 -15 0 0 0 0 -13 -7 -7 4 0 6 -2 0 -1 -6 -11 -6 -4 1 -2 5 -2 1 0 4 -6 3 -3 5 1 7 -6 1 -1 0 0 -1 -2 -5 6 -3 3 -6 -1 -7 4 -2 0 -2 3 -5 -1 -4 -10 -6 -5 2 -1 -2 5 -3 0 -8 -13 -8 0 0 0 0zm152 -49l-13 8 0 8 5 3 -1 2 -5 -2 -10 6 -1 4 3 5 0 2 4 2 -1 7 3 6 6 3 -2 5 -1 1 -1 0 -6 -1 1 -7 -3 -5 -6 -3 0 -4 -2 -1 -2 -5 -4 -1 -11 6 -1 6 -2 0 0 -6 -7 -4 -13 7 0 0 0 0 0 15 7 4 5 -3 1 1 -5 4 0 12 3 2 5 0 2 1 4 -2 5 4 6 0 6 -4 4 4 0 1 0 1 -4 4 -6 -4 -6 0 -5 4 -4 -2 -2 1 -5 0 -3 2 0 12 5 4 -1 1 -5 -3 -7 4 0 15 0 0 0 0 13 7 7 -4 0 -6 2 0 1 6 11 6 4 -1 2 -5 2 -1 0 -4 6 -3 3 -5 -1 -7 6 -1 1 0 0 1 2 5 -6 3 -3 6 1 7 -4 2 0 2 -3 5 1 4 10 6 5 -2 1 2 -5 3 0 8 13 8 0 0 0 0 13 -8 0 -8 -5 -3 1 -2 5 2 10 -6 1 -4 -3 -5 0 -2 -4 -2 1 -7 -3 -6 -6 -3 2 -5 1 -1 1 0 6 1 -1 7 3 5 6 3 0 4 2 1 2 5 4 1 11 -6 1 -6 2 0 0 6 7 4 13 -7 0 0 0 0 0 -15 -7 -4 -5 3 -1 -1 5 -4 0 -12 -3 -2 -5 0 -2 -1 -4 2 -5 -4 -6 0 -6 4 -4 -4 0 -1 0 -1 4 -4 6 4 6 0 5 -4 4 2 2 -1 5 0 3 -2 0 -12 -5 -4 1 -1 5 3 7 -4 0 -15 0 0 0 0 -13 -7 -7 4 0 6 -2 0 -1 -6 -11 -6 -4 1 -2 5 -2 1 0 4 -6 3 -3 5 1 7 -6 1 -1 0 0 -1 -2 -5 6 -3 3 -6 -1 -7 4 -2 0 -2 3 -5 -1 -4 -10 -6 -5 2 -1 -2 5 -3 0 -8 -13 -8 0 0 0 0zm152 62l-13 8 0 8 5 3 -1 2 -5 -2 -10 6 -1 4 3 5 0 2 4 2 -1 7 3 6 6 3 -2 5 -1 1 -1 0 -6 -1 1 -7 -3 -5 -6 -3 0 -4 -2 -1 -2 -5 -4 -1 -11 6 -1 6 -2 0 0 -6 -7 -4 -13 7 0 0 0 0 0 15 7 4 5 -3 1 1 -5 4 0 12 3 2 5 0 2 1 4 -2 5 4 6 0 6 -4 4 4 0 1 0 1 -4 4 -6 -4 -6 0 -5 4 -4 -2 -2 1 -5 0 -3 2 0 12 5 4 -1 1 -5 -3 -7 4 0 15 0 0 0 0 13 7 7 -4 0 -6 2 0 1 6 11 6 4 -1 2 -5 2 -1 0 -4 6 -3 3 -5 -1 -7 6 -1 1 0 0 1 2 5 -6 3 -3 6 1 7 -4 2 0 2 -3 5 1 4 10 6 5 -2 1 2 -5 3 0 8 13 8 0 0 0 0 13 -8 0 -8 -5 -3 1 -2 5 2 10 -6 1 -4 -3 -5 0 -2 -4 -2 1 -7 -3 -6 -6 -3 2 -5 1 -1 1 0 6 1 -1 7 3 5 6 3 0 4 2 1 2 5 4 1 11 -6 1 -6 2 0 0 6 7 4 13 -7 0 0 0 0 0 -15 -7 -4 -5 3 -1 -1 5 -4 0 -12 -3 -2 -5 0 -2 -1 -4 2 -5 -4 -6 0 -6 4 -4 -4 0 -1 0 -1 4 -4 6 4 6 0 5 -4 4 2 2 -1 5 0 3 -2 0 -12 -5 -4 1 -1 5 3 7 -4 0 -15 0 0 0 0 -13 -7 -7 4 0 6 -2 0 -1 -6 -11 -6 -4 1 -2 5 -2 1 0 4 -6 3 -3 5 1 7 -6 1 -1 0 0 -1 -2 -5 6 -3 3 -6 -1 -7 4 -2 0 -2 3 -5 -1 -4 -10 -6 -5 2 -1 -2 5 -3 0 -8 -13 -8 0 0 0 0z"/>
 </g>
</svg>
